<svg id="SvgjsSvg1000" xmlns="http://www.w3.org/2000/svg" version="1.1" xmlns:xlink="http://www.w3.org/1999/xlink" xmlns:svgjs="http://svgjs.com/svgjs" width="31" height="38" viewBox="0 0 31 38"><title>Shape</title><desc>Created with Avocode.</desc><defs id="SvgjsDefs1001"></defs><path id="SvgjsPath1007" d="M364.1 1146.91C364.1 1146.91 364.01000000000005 1146.5 363.98 1146.3700000000001C363.98 1146.3400000000001 363.94 1146.2700000000002 363.94 1146.24C363.91 1146.18 363.85 1145.92 363.81 1145.82C363.81 1145.79 363.81 1145.76 363.78000000000003 1145.73C363.49 1144.8 363.05 1143.96 362.66 1143.3600000000001C359.45000000000005 1138.0700000000002 352.91 1136.43 348.20000000000005 1137.17C343.90000000000003 1137.8400000000001 340.66 1139.96 338.87000000000006 1143.3600000000001C338.4200000000001 1144.2900000000002 338.13000000000005 1145.0200000000002 337.9700000000001 1145.73L337.8400000000001 1146.21C337.8400000000001 1146.27 337.8100000000001 1146.31 337.8100000000001 1146.3700000000001L337.7100000000001 1146.91C337.55000000000007 1147.88 337.55000000000007 1148.93 337.6800000000001 1150.0600000000002V1150.38C337.6800000000001 1150.63 337.6200000000001 1150.95 337.4900000000001 1151.21L335.1800000000001 1156.1200000000001C334.8900000000001 1156.73 334.9600000000001 1157.43 335.3100000000001 1158.0400000000002C335.6900000000001 1158.65 336.3000000000001 1158.9700000000003 337.0100000000001 1158.9700000000003H338.0000000000001L337.5200000000001 1161.2200000000003C337.3900000000001 1161.7600000000002 337.4600000000001 1162.3400000000001 337.6500000000001 1162.8500000000004L337.7500000000001 1163.0800000000004C338.04000000000013 1163.8800000000003 338.10000000000014 1164.7100000000005 337.9400000000001 1165.5400000000004C337.8400000000001 1166.1200000000003 337.9700000000001 1166.7000000000005 338.29000000000013 1167.1500000000003C338.6100000000001 1167.6300000000003 339.1300000000001 1167.9200000000003 339.67000000000013 1168.0100000000002L343.04000000000013 1168.5300000000002V1173.88C343.04000000000013 1174.1100000000001 343.1300000000001 1174.3000000000002 343.29000000000013 1174.39C343.39000000000016 1174.46 343.52000000000015 1174.5200000000002 343.6800000000001 1174.5200000000002C343.7400000000001 1174.5200000000002 343.84000000000015 1174.5200000000002 343.90000000000015 1174.4900000000002L358.94000000000017 1169.0700000000002C359.1000000000002 1169.0100000000002 359.2300000000002 1168.88 359.2900000000002 1168.7200000000003C359.3600000000002 1168.5600000000002 359.3600000000002 1168.3700000000003 359.2900000000002 1168.2100000000003C358.3000000000002 1165.7700000000002 358.1400000000002 1163.6800000000003 358.88000000000017 1161.9800000000002C359.2900000000002 1161.0200000000002 359.8700000000002 1160.4500000000003 360.26000000000016 1160.0600000000002L360.38000000000017 1159.93C364.1700000000002 1156.21 365.4200000000002 1151.8200000000002 364.1000000000002 1146.91ZM353.65 1153.23C353.78 1153.55 353.96999999999997 1153.84 354.22999999999996 1154.07C354.47999999999996 1154.32 354.77 1154.51 355.05999999999995 1154.6399999999999C355.37999999999994 1154.77 355.53999999999996 1155.1599999999999 355.40999999999997 1155.4799999999998C355.32 1155.7299999999998 355.05999999999995 1155.86 354.79999999999995 1155.86C354.71 1155.86 354.63999999999993 1155.86 354.54999999999995 1155.8C354.06999999999994 1155.6 353.65 1155.32 353.29999999999995 1154.96C352.94999999999993 1154.6100000000001 352.65999999999997 1154.19 352.46 1153.71C352.27 1153.23 352.14 1152.72 352.14 1152.17C352.14 1151.63 352.24 1151.1200000000001 352.46 1150.63C352.65999999999997 1150.15 352.95 1149.74 353.29999999999995 1149.38C353.65 1149.0300000000002 354.06999999999994 1148.74 354.54999999999995 1148.5500000000002C354.86999999999995 1148.42 355.24999999999994 1148.5500000000002 355.37999999999994 1148.9C355.50999999999993 1149.22 355.37999999999994 1149.6100000000001 355.0299999999999 1149.74C354.7099999999999 1149.86 354.4199999999999 1150.06 354.19999999999993 1150.31C353.93999999999994 1150.57 353.74999999999994 1150.86 353.61999999999995 1151.1499999999999C353.48999999999995 1151.4699999999998 353.42999999999995 1151.82 353.42999999999995 1152.1699999999998C353.42999999999995 1152.56 353.5199999999999 1152.9099999999999 353.65 1153.2299999999998ZM353.84 1146.88C353.16999999999996 1147.17 352.53 1147.5900000000001 352.02 1148.13C351.5 1148.65 351.09 1149.2900000000002 350.79999999999995 1149.96C350.50999999999993 1150.67 350.34999999999997 1151.44 350.34999999999997 1152.21C350.34999999999997 1152.97 350.51 1153.74 350.79999999999995 1154.45C351.09 1155.1200000000001 351.49999999999994 1155.76 352.02 1156.28C352.56 1156.82 353.16999999999996 1157.21 353.84 1157.5C354.15999999999997 1157.62 354.32 1158.01 354.2 1158.33C354.09999999999997 1158.59 353.84 1158.71 353.62 1158.71C353.52 1158.71 353.46 1158.68 353.36 1158.65C352.53000000000003 1158.3000000000002 351.76 1157.7800000000002 351.12 1157.14C350.48 1156.5 349.96 1155.73 349.61 1154.9C349.26 1154.0300000000002 349.07 1153.1000000000001 349.07 1152.17C349.07 1151.21 349.26 1150.3100000000002 349.61 1149.45C349.96000000000004 1148.6100000000001 350.48 1147.8400000000001 351.12 1147.2C351.76 1146.56 352.53000000000003 1146.05 353.36 1145.7C353.68 1145.57 354.07 1145.7 354.2 1146.05C354.32 1146.37 354.2 1146.75 353.84 1146.8799999999999ZM352.66 1144.03C351.6 1144.48 350.67 1145.12 349.84000000000003 1145.92C349.03000000000003 1146.72 348.39000000000004 1147.68 347.94000000000005 1148.74C347.49000000000007 1149.83 347.24000000000007 1150.99 347.24000000000007 1152.17C347.24000000000007 1153.3600000000001 347.4600000000001 1154.51 347.94000000000005 1155.6000000000001C348.39000000000004 1156.66 349.03000000000003 1157.5900000000001 349.84000000000003 1158.43C350.64000000000004 1159.23 351.6 1159.8700000000001 352.66 1160.3200000000002C352.98 1160.4500000000003 353.14000000000004 1160.8300000000002 353.01000000000005 1161.15C352.91 1161.41 352.66 1161.5400000000002 352.43000000000006 1161.5400000000002C352.3400000000001 1161.5400000000002 352.27000000000004 1161.5000000000002 352.18000000000006 1161.4700000000003C350.96000000000004 1160.9600000000003 349.9000000000001 1160.2200000000003 348.9700000000001 1159.2900000000002C348.0400000000001 1158.3600000000001 347.30000000000007 1157.2700000000002 346.7900000000001 1156.0900000000001C346.24000000000007 1154.8300000000002 345.99000000000007 1153.5200000000002 345.99000000000007 1152.14C345.99000000000007 1150.76 346.24000000000007 1149.45 346.7900000000001 1148.2C347.30000000000007 1146.98 348.0400000000001 1145.92 348.9700000000001 1144.99C349.9000000000001 1144.06 350.99000000000007 1143.32 352.18000000000006 1142.81C352.50000000000006 1142.6799999999998 352.88000000000005 1142.81 353.01000000000005 1143.1599999999999C353.14000000000004 1143.5199999999998 352.9800000000001 1143.8999999999999 352.66 1144.0299999999997Z " fill="#ffffff" fill-opacity="1" transform="matrix(1,0,0,1,-334,-1137)"></path></svg>